<?xml version="1.0" encoding="UTF-8"?>
<svg version="1.1" xmlns="http://www.w3.org/2000/svg" width="1080" height="1080">
<path d="M0 0 C356.4 0 712.8 0 1080 0 C1080 356.4 1080 712.8 1080 1080 C723.6 1080 367.2 1080 0 1080 C0 723.6 0 367.2 0 0 Z " fill="#FEFEFE" transform="translate(0,0)"/>
<path d="M0 0 C0.86443726 0.00093658 1.72887451 0.00187317 2.61950684 0.00283813 C24.30430234 0.05370024 44.74527319 2.28798669 66.02441406 6.57910156 C68.64561111 7.10401502 71.26972857 7.60055116 73.8984375 8.0859375 C110.55533162 15.15726854 145.03308703 33.66217875 172.0625 59.1875 C172.86042969 59.92097656 173.65835937 60.65445313 174.48046875 61.41015625 C190.06580324 76.25215205 200.84465709 94.94544191 210.0625 114.1875 C210.59488281 115.28320312 211.12726563 116.37890625 211.67578125 117.5078125 C215.0625 124.66285211 215.0625 124.66285211 215.0625 129.1875 C212.83789062 130.95166016 212.83789062 130.95166016 209.71875 132.7265625 C208.5831665 133.38390381 207.44758301 134.04124512 206.27758789 134.71850586 C205.0392394 135.416529 203.80087645 136.11452648 202.5625 136.8125 C201.30163824 137.53803429 200.04179314 138.26533815 198.78295898 138.99438477 C196.90927827 140.07938689 195.0351597 141.16347793 193.15782166 142.24214172 C188.749842 144.77538437 184.41170341 147.39276905 180.125 150.125 C171.46271758 155.61360136 162.67941127 160.90359944 153.90649414 166.21264648 C153.32243301 166.56649414 152.73837189 166.9203418 152.13661194 167.28491211 C150.44796118 168.30678996 148.75720902 169.3251927 147.06640625 170.34350586 C144.53069194 171.90009316 142.06397425 173.5230084 139.59375 175.1796875 C136.35060785 177.21866298 133.95311499 177.74316344 130.0625 177.5 C129.11375 177.45488281 128.165 177.40976562 127.1875 177.36328125 C126.48625 177.30527344 125.785 177.24726563 125.0625 177.1875 C124.826521 176.66953857 124.59054199 176.15157715 124.34741211 175.61791992 C109.1781756 142.49701123 88.83751996 118.13831884 54.27734375 104.68359375 C44.73849167 101.26593017 35.0890775 99.47504164 25.0625 98.1875 C24.0103833 98.04284302 24.0103833 98.04284302 22.93701172 97.89526367 C15.07171633 96.94815594 7.17928558 97.00140766 -0.73095703 97.00219727 C-3.16847372 97.00001702 -5.60553205 96.98182169 -8.04296875 96.96289062 C-17.54427901 96.92838976 -26.56498234 97.49020599 -35.9375 99.1875 C-36.71947754 99.32293213 -37.50145508 99.45836426 -38.30712891 99.59790039 C-69.81520212 105.42257519 -99.13883941 124.33969251 -117.40820312 150.69873047 C-144.77227786 191.77832228 -149.15348969 242.43843483 -149.1875 290.5 C-149.18850708 291.49997009 -149.18951416 292.49994019 -149.19055176 293.5302124 C-149.17435883 317.46192457 -147.40372533 340.8260205 -141.9375 364.1875 C-141.63765421 365.54418986 -141.33816462 366.9009585 -141.0390625 368.2578125 C-132.85135523 404.19496885 -114.72567282 438.07278757 -83.02832031 458.41259766 C-70.71641199 465.96246862 -57.92488061 471.34592917 -43.9375 474.9375 C-43.16760742 475.13633789 -42.39771484 475.33517578 -41.60449219 475.54003906 C-29.26064472 478.5248848 -16.79841856 479.57801114 -4.125 479.5625 C-3.13759827 479.56317978 -3.13759827 479.56317978 -2.13024902 479.56387329 C30.14500932 479.49945452 62.64771345 471.89034802 88.0625 451.1875 C88.79082031 450.61257813 89.51914062 450.03765625 90.26953125 449.4453125 C112.43557184 431.17035201 124.44956099 401.34612976 131.0625 374.1875 C141.57403315 372.60909976 149.19409487 377.19663606 158.0625 382.0625 C159.54573597 382.85467543 161.03012224 383.64470069 162.515625 384.43261719 C165.42057381 385.97748696 168.31887443 387.53368054 171.2109375 389.10253906 C175.08532937 391.20399601 178.98212351 393.26025381 182.88867188 395.30126953 C185.04427002 396.42797144 187.19436875 397.56461549 189.34375 398.703125 C193.10525653 400.69002307 196.87923793 402.65211789 200.65625 404.609375 C201.79964844 405.20202148 202.94304687 405.79466797 204.12109375 406.40527344 C206.37293915 407.5714533 208.62551518 408.73622368 210.87890625 409.89941406 C211.89855469 410.42760742 212.91820312 410.95580078 213.96875 411.5 C214.87947266 411.97050781 215.79019531 412.44101562 216.72851562 412.92578125 C219.0625 414.1875 219.0625 414.1875 222.0625 416.1875 C216.22694884 445.22703399 201.93176416 473.72669457 184.0625 497.1875 C183.08023438 498.48880859 183.08023438 498.48880859 182.078125 499.81640625 C174.3850074 509.71891093 165.84278156 519.30846407 156.0625 527.1875 C155.04800781 528.02796875 154.03351563 528.8684375 152.98828125 529.734375 C144.80939964 536.41714826 136.31693546 542.10444553 127.0625 547.1875 C126.45245117 547.52346191 125.84240234 547.85942383 125.21386719 548.20556641 C107.58170874 557.7675857 88.6405173 564.87581881 69.0625 569.1875 C67.86222168 569.45554443 67.86222168 569.45554443 66.63769531 569.72900391 C-7.4879924 585.9266226 -90.08845382 575.54429886 -154.61083984 534.70703125 C-160.00266363 531.18565547 -165.0025538 527.32772759 -169.9375 523.1875 C-170.5037207 522.71989258 -171.06994141 522.25228516 -171.65332031 521.77050781 C-183.5936046 511.89943901 -194.35571532 501.41138237 -203.9375 489.1875 C-204.72769531 488.21425781 -205.51789063 487.24101563 -206.33203125 486.23828125 C-235.6434574 449.44897946 -251.49490393 404.13488797 -258.9375 358.1875 C-259.23681655 356.42184743 -259.53628456 354.65622052 -259.8359375 352.890625 C-260.64219538 348.00190209 -261.32888183 343.10459556 -261.9375 338.1875 C-262.04191406 337.34413086 -262.14632812 336.50076172 -262.25390625 335.63183594 C-264.60041427 315.56028161 -264.23650281 295.35864703 -263.9375 275.1875 C-263.91816406 273.88184082 -263.89882813 272.57618164 -263.87890625 271.23095703 C-263.41015195 245.80448323 -260.53567822 220.99569187 -254.9375 196.1875 C-254.73898438 195.29981934 -254.54046875 194.41213867 -254.3359375 193.49755859 C-243.42409803 145.45818535 -220.21359556 102.4852821 -185.9375 67.1875 C-185.3607251 66.59026123 -184.7839502 65.99302246 -184.18969727 65.37768555 C-180.45781226 61.57038806 -176.5987487 58.12493316 -172.375 54.875 C-171.77204102 54.40843994 -171.16908203 53.94187988 -170.54785156 53.46118164 C-168.68410761 52.02803515 -166.81218835 50.60629033 -164.9375 49.1875 C-164.37111816 48.75501953 -163.80473633 48.32253906 -163.22119141 47.87695312 C-137.91232337 28.67150986 -107.66208294 15.76845688 -76.9375 8.1875 C-75.84115234 7.91510498 -75.84115234 7.91510498 -74.72265625 7.63720703 C-60.63723912 4.21796583 -46.34992548 2.56230667 -31.9375 1.1875 C-30.94258545 1.08961182 -29.9476709 0.99172363 -28.92260742 0.89086914 C-19.28558185 0.03747585 -9.66708374 -0.01354809 0 0 Z " fill="#000000" transform="translate(307.9375,269.8125)"/>
<path d="M0 0 C38.61 0 77.22 0 117 0 C119.3771639 5.94290975 121.64873972 11.69584703 123.65625 17.73828125 C123.88526001 18.4257695 124.11427002 19.11325775 124.35021973 19.82157898 C124.82882377 21.2603788 125.30599025 22.69965759 125.78173828 24.1394043 C126.49559399 26.29916965 127.21420285 28.45730721 127.93359375 30.61523438 C129.96353862 36.72630434 131.95689625 42.8404169 133.83496094 49 C135.98349925 56.00796902 138.26319675 62.96980114 140.56600571 69.92808723 C141.32141286 72.21087029 142.07511274 74.49421117 142.82839966 76.7776947 C143.90787845 80.04973187 144.98787301 83.32159801 146.06829834 86.59332275 C153.76592261 109.90692403 161.44979696 133.22290902 168.875 156.625 C176.20419641 179.71836885 183.80478088 202.72055293 191.40041351 225.72730255 C198.6568065 247.70775209 205.87803039 269.69495935 212.87512207 291.75961304 C220.70444717 316.42674591 228.85499765 340.98938226 236.97563553 365.56177998 C238.13188586 369.06092036 239.28727916 372.56034349 240.44264984 376.0597744 C241.24025423 378.47398821 242.03941142 380.88768392 242.83868408 383.30134583 C250.58099969 406.7192487 250.58099969 406.7192487 253 417 C256.3 417 259.6 417 263 417 C263.35771484 415.20695435 263.35771484 415.20695435 263.72265625 413.37768555 C265.19494964 406.77253699 267.3415241 400.38484787 269.4375 393.95703125 C269.88183304 392.58455163 270.325836 391.21196511 270.76953125 389.83927917 C271.70176071 386.95803321 272.63665646 384.07767199 273.57373047 381.19799805 C274.74250819 377.60622238 275.90677987 374.01300966 277.06922722 370.41918087 C282.21347308 354.51753847 287.41950993 338.63804035 292.7512207 322.798172 C295.14218288 315.67313845 297.3914681 308.52879341 299.44726562 301.30033875 C300.73443741 296.79858951 302.26376131 292.44359992 303.92138672 288.06762695 C305.17238037 284.50974211 306.21459483 280.90579816 307.25 277.28125 C310.13554865 267.33179164 313.44206831 257.5376314 316.77050781 247.72949219 C319.73228667 238.987164 322.56651125 230.23486005 325.13056946 221.36723328 C327.47420559 213.29213346 330.07788619 205.30480598 332.6875 197.3125 C333.21177717 195.70023018 333.73594517 194.08792486 334.26000977 192.47558594 C338.00512207 180.97036391 341.83575001 169.49483862 345.6887207 158.02539062 C348.09748914 150.81934367 350.371971 143.59572022 352.45092773 136.28808594 C353.74157684 131.77285162 355.28068908 127.40636127 356.9375 123.01538086 C358.0900408 119.74446373 359.04486646 116.45355699 359.9921875 113.1171875 C362.39709686 104.80960514 365.0303236 96.57881757 367.6953125 88.3515625 C367.91013716 87.68826809 368.12496181 87.02497368 368.34629631 86.34157944 C369.70288442 82.15541615 371.06261997 77.97027916 372.42300034 73.78534698 C374.54531563 67.25409394 376.6618831 60.72097594 378.77734375 54.1875 C379.12183406 53.12386671 379.12183406 53.12386671 379.47328377 52.03874588 C382.27262498 43.39217618 385.04725721 34.73863086 387.75390625 26.0625 C388.01657288 25.22069183 388.2792395 24.37888367 388.54986572 23.51156616 C389.70143415 19.81317902 390.84507093 16.11252178 391.97900391 12.40869141 C392.3610498 11.17296387 392.7430957 9.93723633 393.13671875 8.6640625 C393.45342529 7.62717285 393.77013184 6.5902832 394.09643555 5.52197266 C395 3 395 3 397 0 C399.02647591 -0.36914349 399.02647591 -0.36914349 401.56838989 -0.36076355 C402.53035278 -0.36488754 403.49231567 -0.36901154 404.48342896 -0.3732605 C405.5422226 -0.36247467 406.60101624 -0.35168884 407.69189453 -0.34057617 C408.80409363 -0.34101425 409.91629272 -0.34145233 411.06219482 -0.34190369 C414.75257693 -0.33980722 418.44250939 -0.31643527 422.1328125 -0.29296875 C424.6858597 -0.28737586 427.23891011 -0.28310432 429.79196167 -0.28010559 C435.83394977 -0.26980646 441.87574371 -0.24614246 447.91765392 -0.21605712 C454.79541833 -0.18255144 461.67319041 -0.16603678 468.55101609 -0.15097082 C482.7007674 -0.11959381 496.85037482 -0.06680943 511 0 C509.32920391 5.63171758 507.62686025 11.24470737 505.77026367 16.81860352 C505.14766914 18.69111534 505.14766914 18.69111534 504.51249695 20.60145569 C504.06439531 21.94396405 503.61621688 23.28644679 503.16796875 24.62890625 C502.69004295 26.06336123 502.212206 27.49784582 501.73445129 28.93235779 C500.72929722 31.9492905 499.72306772 34.96586177 498.71606445 37.98217773 C497.47174564 41.70959596 496.23002606 45.4378732 494.98912811 49.16643143 C489.17348758 66.63650025 483.28058907 84.07874675 477.31842232 101.49934196 C470.36173581 121.82849793 463.50573817 142.19118617 456.65692902 162.5568924 C454.87537481 167.85376837 453.0926784 173.15025991 451.31005859 178.44677734 C448.71468848 186.15836117 446.11955822 193.8700256 443.52478981 201.5818119 C436.56290146 222.27272149 429.59563569 242.96181939 422.62693787 263.6504364 C421.62223777 266.63320053 420.6175746 269.6159771 419.61291504 272.59875488 C409.72186901 301.96419341 399.81913258 331.32567023 389.90737534 360.68412399 C383.77775581 378.84007006 377.65124862 396.99705836 371.53125 415.15625 C371.21619822 416.09105131 370.90114643 417.02585262 370.57654762 417.98898125 C367.71344886 426.48426501 364.85051376 434.97960392 361.98812866 443.47512817 C355.49846215 462.7362529 349.00489754 481.99602778 342.490448 501.24878693 C341.59358974 503.89943287 340.69691321 506.55014023 339.80029297 509.2008667 C337.28113002 516.64809359 334.76149252 524.09515564 332.23800755 531.5409193 C331.2297393 534.51687445 330.22272629 537.49325324 329.21603966 540.46974373 C328.75220885 541.84021181 328.28781803 543.2104905 327.82282448 544.5805645 C327.19123461 546.44164954 326.56174738 548.30344775 325.93237305 550.1652832 C325.58095749 551.20256058 325.22954193 552.23983795 324.86747742 553.30854797 C324.15708881 555.51261327 323.56164442 557.75342231 323 560 C278.45 560 233.9 560 188 560 C186.35 554.39 184.7 548.78 183 543 C182.0307711 540.00535154 181.05437318 537.03047686 180.01831055 534.06079102 C179.75902834 533.30662588 179.49974613 532.55246075 179.23260689 531.77544212 C178.67895478 530.16596704 178.12370269 528.55704152 177.56690407 526.94865227 C176.01972304 522.47794913 174.48623798 518.00253896 172.95068359 513.52783203 C172.6280507 512.58864772 172.3054178 511.64946341 171.97300816 510.68181896 C168.29924424 499.97829637 164.68885977 489.25356891 161.08203125 478.52734375 C160.4062723 476.51870319 159.73050116 474.51006674 159.05471802 472.50143433 C157.67910149 468.41202096 156.30393797 464.32245558 154.92907715 460.23278809 C151.28998167 449.40821408 147.64711611 438.58490855 144.00390625 427.76171875 C143.64742886 426.70264439 143.29095146 425.64357002 142.92367172 424.5524025 C137.38895724 408.11035132 131.83471307 391.67514475 126.25 375.25 C118.33557948 351.97158497 110.47721226 328.67445585 102.625 305.375 C94.20457933 280.39002413 85.77747416 255.40742023 77.3125 230.4375 C69.8252037 208.3513059 62.35632 186.25896932 54.89806747 164.16295242 C46.66734814 139.77862114 38.43289194 115.39556754 30.18280792 91.0177803 C29.50454465 89.01342998 28.82643593 87.00902743 28.14837646 85.00460815 C23.55482578 71.42594378 18.95314321 57.85014902 14.32432175 44.28346252 C13.2559133 41.15144154 12.18860769 38.0190447 11.12109375 34.88671875 C9.53997884 30.24748552 7.95480448 25.6096678 6.3671875 20.97265625 C5.66521057 18.91411501 4.96337878 16.85552428 4.26171875 14.796875 C3.94309372 13.87001892 3.62446869 12.94316284 3.29618835 11.98822021 C3.00597305 11.13455872 2.71575775 10.28089722 2.41674805 9.40136719 C2.03996162 8.29979279 2.03996162 8.29979279 1.65556335 7.17596436 C0.94742686 4.82549776 0.48143018 2.4071509 0 0 Z " fill="#000000" transform="translate(559,278)"/>
</svg>
